<svg xmlns="http://www.w3.org/2000/svg" viewBox="0 0 32 32" fill="none">
  <rect width="32" height="32" rx="6" fill="#FFF5F5"/>
  <path d="M16 8c-2 0-4 2-4 4s2 4 4 4c2 0 4-2 4-4s-2-4-4-4z" fill="#E11D48"/>
  <path d="M12 12c-2 0-3.5 1.5-3.5 3.5S10 19 12 19c1.5 0 2.8-1 3.3-2.3" fill="#F43F5E"/>
  <path d="M20 12c2 0 3.5 1.5 3.5 3.5S22 19 20 19c-1.5 0-2.8-1-3.3-2.3" fill="#F43F5E"/>
  <path d="M16 16v10" stroke="#16A34A" stroke-width="2" stroke-linecap="round"/>
  <path d="M13 20c-1.5 0-3 1-3 2.5" stroke="#16A34A" stroke-width="1.5" stroke-linecap="round"/>
  <path d="M19 20c1.5 0 3 1 3 2.5" stroke="#16A34A" stroke-width="1.5" stroke-linecap="round"/>
</svg>
