<?xml version="1.0" encoding="UTF-8"?>
<svg version="1.1" xmlns="http://www.w3.org/2000/svg" width="430" height="96">
<path d="M0 0 C2.44230597 2.23958492 4.74149148 4.5766814 7 7 C7.66 7.66 8.32 8.32 9 9 C9.53367188 8.33613281 10.06734375 7.67226563 10.6171875 6.98828125 C16.81662353 -0.35880124 22.83641946 -5.34970544 32.5 -7 C39.77962115 -7.43729173 46.8320983 -4.9272451 52.53515625 -0.4453125 C57.71351841 4.66400483 59.64369225 11.55569172 60.375 18.625 C59.90377549 33.85144203 51.00647108 47.3086907 40.48974609 57.60839844 C32.4727428 65.09724124 18.48056058 76.62676981 7 77 C-2.19060385 73.7530202 -10.44660592 68.05442595 -18 62 C-19.16982422 61.07767578 -19.16982422 61.07767578 -20.36328125 60.13671875 C-29.78199326 52.27965847 -36.72497865 42.48353017 -41 31 C-41.25652344 30.33742187 -41.51304687 29.67484375 -41.77734375 28.9921875 C-44.21742896 21.36891476 -43.49525076 12.22232162 -40 5.0625 C-36.16277322 -0.93592348 -30.4149045 -4.56524227 -23.625 -6.5 C-14.92181992 -7.97331321 -6.77806263 -5.49108872 0 0 Z " fill="#FFFFFF" transform="translate(198,13)"/>
<path d="M0 0 C2.44230597 2.23958492 4.74149148 4.5766814 7 7 C7.66 7.66 8.32 8.32 9 9 C9.53367188 8.33613281 10.06734375 7.67226563 10.6171875 6.98828125 C16.81662353 -0.35880124 22.83641946 -5.34970544 32.5 -7 C39.77962115 -7.43729173 46.8320983 -4.9272451 52.53515625 -0.4453125 C57.71351841 4.66400483 59.64369225 11.55569172 60.375 18.625 C59.90377549 33.85144203 51.00647108 47.3086907 40.48974609 57.60839844 C32.4727428 65.09724124 18.48056058 76.62676981 7 77 C-2.19060385 73.7530202 -10.44660592 68.05442595 -18 62 C-19.16982422 61.07767578 -19.16982422 61.07767578 -20.36328125 60.13671875 C-29.78199326 52.27965847 -36.72497865 42.48353017 -41 31 C-41.25652344 30.33742187 -41.51304687 29.67484375 -41.77734375 28.9921875 C-44.21742896 21.36891476 -43.49525076 12.22232162 -40 5.0625 C-36.16277322 -0.93592348 -30.4149045 -4.56524227 -23.625 -6.5 C-14.92181992 -7.97331321 -6.77806263 -5.49108872 0 0 Z M-31.875 3.375 C-36.98007244 9.68126595 -38.64575571 14.86347805 -38 23 C-33.78028185 40.76857221 -22.02846966 54.20137084 -7 64 C-6.36964844 64.41862305 -5.73929688 64.83724609 -5.08984375 65.26855469 C3.00527427 70.65330096 3.00527427 70.65330096 12.30078125 71.44140625 C15.50826894 69.90630514 18.16334481 68.1413191 21 66 C21.94617188 65.36320312 22.89234375 64.72640625 23.8671875 64.0703125 C26.6653619 62.14026977 29.3378096 60.11291316 32 58 C32.7940625 57.37222656 33.588125 56.74445313 34.40625 56.09765625 C45.01568084 47.21407461 53.66329437 35.00689969 55.22265625 21 C55.5157803 14.4748038 53.84395282 9.18362834 49.625 4.1875 C44.70562188 0.08801823 40.55035153 -2.14887163 34 -2 C25.87653916 -0.88629972 20.41381776 2.97974644 15 9 C11.99652548 13.11983572 11.99652548 13.11983572 11 18 C9.35 18 7.7 18 6 18 C5.7525 16.7934375 5.7525 16.7934375 5.5 15.5625 C2.52761057 8.5030751 -2.89679566 2.65866538 -10.00390625 -0.34765625 C-18.10591406 -2.99547485 -25.16322494 -2.16950983 -31.875 3.375 Z " fill="#000000" transform="translate(198,13)"/>
</svg>
